<?xml version="1.0" encoding="UTF-8"?><svg id="_レイヤー_2" xmlns="http://www.w3.org/2000/svg" viewBox="0 0 512 512"><defs><style>.cls-1{fill:#fef6e4;}</style></defs><g id="_屋号"><g><g><g><path class="cls-1" d="m86.2,414.83h-.54c-13.64,0-24.68-10.86-24.68-24.2v-4.9c0,14.64,10.92,26.8,25.22,29.1Z"/><path class="cls-1" d="m470.98,385.73v-37.6c0-14.16-10.2-25.97-23.77-28.86,14.9-19.65,23.77-43.97,23.77-70.41v-53.83c0-65.16-54.06-118.04-120.68-118.04h-55.03c-66.67,0-120.68,52.88-120.68,118.04v53.83c0,26.15,8.69,50.23,23.29,69.76h-87.49v-121.29h19.19c16.65,0,30.17-13.16,30.17-29.51v-37.6c0-16.29-13.52-29.51-30.17-29.51h-38.44c-16.65,0-30.17,13.22-30.17,29.51v255.5c0,14.64,10.92,26.8,25.22,29.1,1.63.3,3.26.41,4.95.41h349.66c16.65,0,30.17-13.22,30.17-29.51Zm-218.06-95.44c-17.86-17.47-28.9-41.61-28.9-68.35s11.04-50.82,28.9-68.29,42.6-28.33,69.87-28.33,51.95,10.8,69.87,28.33c17.86,17.47,28.9,41.61,28.9,68.29,0,53.41-44.23,96.68-98.77,96.68-27.27,0-51.95-10.8-69.87-28.33Z"/></g><g><path class="cls-1" d="m301.61,131.21v181.31c0,5.16-5.23,9.34-11.68,9.34h-26.65c-6.45,0-11.68-4.19-11.68-9.34v-181.31c0-5.16,5.23-9.34,11.68-9.34h26.65c6.45,0,11.68,4.19,11.68,9.34Z"/><g><path class="cls-1" d="m295.87,250.22l-9.45-9.42c-7.07-7.04-8.82-16.81-3.91-21.69l88.52-87.95c4.91-4.88,14.7-3.12,21.76,3.92l9.45,9.42c7.07,7.04,8.82,16.81,3.91,21.69l-88.52,87.95c-4.91,4.88-14.7,3.12-21.76-3.92Z"/><path class="cls-1" d="m286.43,215.21l9.45-9.42c7.06-7.03,16.85-8.8,21.76-3.92l88.52,87.95c4.92,4.89,3.16,14.65-3.91,21.69l-9.45,9.42c-7.06,7.03-16.85,8.8-21.76,3.92l-88.52-87.95c-4.92-4.89-3.16-14.65,3.91-21.69Z"/></g></g></g><path class="cls-1" d="m256,30c30.52,0,60.12,5.97,87.96,17.75,26.91,11.38,51.08,27.68,71.85,48.45,20.77,20.77,37.06,44.94,48.45,71.85,11.78,27.84,17.75,57.44,17.75,87.96s-5.97,60.12-17.75,87.96c-11.38,26.91-27.68,51.08-48.45,71.85s-44.94,37.06-71.85,48.45c-27.84,11.78-57.44,17.75-87.96,17.75s-60.12-5.97-87.96-17.75c-26.91-11.38-51.08-27.68-71.85-48.45s-37.06-44.94-48.45-71.85c-11.78-27.84-17.75-57.44-17.75-87.96s5.97-60.12,17.75-87.96c11.38-26.91,27.68-51.08,48.45-71.85,20.77-20.77,44.94-37.06,71.85-48.45,27.84-11.78,57.44-17.75,87.96-17.75m0-30C114.61,0,0,114.62,0,256s114.61,256,256,256,256-114.62,256-256S397.38,0,256,0h0Z"/></g></g></svg>