<svg xmlns="http://www.w3.org/2000/svg" xmlns:xlink="http://www.w3.org/1999/xlink" width="120" height="80" viewBox="0 0 120 80">
  <defs>
    <clipPath id="clip-path">
      <rect id="長方形_33" data-name="長方形 33" width="120" height="80" fill="none"/>
    </clipPath>
  </defs>
  <g id="logo-white" clip-path="url(#clip-path)">
    <path id="パス_160" data-name="パス 160" d="M308.228,178.058h-2.7a5.983,5.983,0,0,1-5.926-6.038v-2.754a5.982,5.982,0,0,1,5.926-6.038h2.7a5.983,5.983,0,0,1,5.926,6.038v2.754a5.983,5.983,0,0,1-5.926,6.038m-1.4-12.2-4.444,3.29,1.7,5.323h5.494l1.7-5.323Z" transform="translate(-210.83 -113.952)" fill="#fef6e4"/>
    <path id="パス_161" data-name="パス 161" d="M143.229,97.334h-7.176a5.983,5.983,0,0,1-5.926-6.038V83.985a5.983,5.983,0,0,1,5.926-6.038h7.176a5.982,5.982,0,0,1,5.926,6.038V91.3a5.982,5.982,0,0,1-5.926,6.038m2.755-9.269v-.849a5.982,5.982,0,0,0-5.926-6.038h-.833a5.982,5.982,0,0,0-5.926,6.038v.849a5.982,5.982,0,0,0,5.926,6.038h.833a5.982,5.982,0,0,0,5.926-6.038" transform="translate(-91.571 -54.416)" fill="#fef6e4"/>
    <path id="パス_162" data-name="パス 162" d="M108.624,83.962H25.813A15.722,15.722,0,0,1,10.257,68.113V25.849A15.722,15.722,0,0,1,25.813,10h82.811a15.722,15.722,0,0,1,15.556,15.849V68.113a15.722,15.722,0,0,1-15.556,15.849M25.813,11.509a14.225,14.225,0,0,0-14.074,14.34V68.113a14.225,14.225,0,0,0,14.074,14.34h82.811A14.225,14.225,0,0,0,122.7,68.113V25.849a14.225,14.225,0,0,0-14.074-14.34Z" transform="translate(-7.218 -6.981)" fill="#fef6e4"/>
    <path id="パス_163" data-name="パス 163" d="M101.481,80H18.519A18.717,18.717,0,0,1,0,61.132V18.868A18.717,18.717,0,0,1,18.519,0h82.963A18.717,18.717,0,0,1,120,18.868V61.132A18.717,18.717,0,0,1,101.481,80M18.519,1.509A17.219,17.219,0,0,0,1.481,18.868V61.132A17.219,17.219,0,0,0,18.519,78.491h82.963a17.219,17.219,0,0,0,17.037-17.358V18.868A17.219,17.219,0,0,0,101.481,1.509Z" fill="#fef6e4"/>
    <path id="パス_164" data-name="パス 164" d="M214.143,97.334h-7.176a5.982,5.982,0,0,1-5.926-6.038V83.985a5.982,5.982,0,0,1,5.926-6.038h7.176a5.983,5.983,0,0,1,5.926,6.038V91.3a5.983,5.983,0,0,1-5.926,6.038m2.755-9.269v-.849a5.982,5.982,0,0,0-5.926-6.038h-.833a5.983,5.983,0,0,0-5.926,6.038v.849a5.983,5.983,0,0,0,5.926,6.038h.833a5.982,5.982,0,0,0,5.926-6.038" transform="translate(-141.473 -54.416)" fill="#fef6e4"/>
    <path id="パス_165" data-name="パス 165" d="M296.83,97.334h-7.176a5.982,5.982,0,0,1-5.926-6.038V83.985a5.982,5.982,0,0,1,5.926-6.038h7.176a5.983,5.983,0,0,1,5.926,6.038V91.3a5.983,5.983,0,0,1-5.926,6.038m2.755-9.269v-.849a5.982,5.982,0,0,0-5.926-6.038h-.833a5.982,5.982,0,0,0-5.926,6.038v.849a5.983,5.983,0,0,0,5.926,6.038h.833a5.982,5.982,0,0,0,5.926-6.038" transform="translate(-199.66 -54.416)" fill="#fef6e4"/>
    <path id="パス_166" data-name="パス 166" d="M48.862,67.445h-3.38A1.5,1.5,0,0,1,44,65.936V36.643a1.5,1.5,0,0,1,1.481-1.509h3.38a1.5,1.5,0,0,1,1.481,1.509V65.936a1.5,1.5,0,0,1-1.481,1.509" transform="translate(-30.964 -24.528)" fill="#fef6e4"/>
    <path id="パス_167" data-name="パス 167" d="M83.452,101.5l-.147.15a1.462,1.462,0,0,1-2.1,0l-13.6-13.858a1.53,1.53,0,0,1,0-2.135l.147-.15a1.462,1.462,0,0,1,2.1,0l13.6,13.859a1.529,1.529,0,0,1,0,2.135" transform="translate(-47.271 -59.385)" fill="#fef6e4"/>
    <path id="パス_168" data-name="パス 168" d="M83.149,39.529l.147.15a1.529,1.529,0,0,1,0,2.135l-13.6,13.859a1.462,1.462,0,0,1-2.1,0l-.148-.15a1.53,1.53,0,0,1,0-2.135l13.6-13.859a1.462,1.462,0,0,1,2.1,0" transform="translate(-47.161 -27.287)" fill="#fef6e4"/>
    <path id="パス_169" data-name="パス 169" d="M260.487,67.445h-3.38a1.5,1.5,0,0,1-1.481-1.509V36.643a1.5,1.5,0,0,1,1.481-1.509h3.38a1.5,1.5,0,0,1,1.481,1.509V65.936a1.5,1.5,0,0,1-1.481,1.509" transform="translate(-179.885 -24.528)" fill="#fef6e4"/>
    <path id="パス_170" data-name="パス 170" d="M342.1,87.2h-3.38a1.5,1.5,0,0,1-1.481-1.509V64.472a1.5,1.5,0,0,1,1.481-1.509h3.38a1.5,1.5,0,0,1,1.481,1.509V85.687A1.5,1.5,0,0,1,342.1,87.2" transform="translate(-237.319 -43.955)" fill="#fef6e4"/>
    <path id="パス_171" data-name="パス 171" d="M311.872,64.471v.212a1.5,1.5,0,0,1-1.481,1.509H295.911a1.5,1.5,0,0,1-1.481-1.509v-.212a1.5,1.5,0,0,1,1.481-1.509h14.479a1.5,1.5,0,0,1,1.481,1.509" transform="translate(-207.192 -43.955)" fill="#fef6e4"/>
    <path id="パス_172" data-name="パス 172" d="M348.937,134.042v.212a1.5,1.5,0,0,1-1.481,1.509h-3.38a1.5,1.5,0,0,1-1.481-1.509v-.212a1.5,1.5,0,0,1,1.481-1.509h3.38a1.5,1.5,0,0,1,1.481,1.509" transform="translate(-241.085 -92.523)" fill="#fef6e4"/>
    <path id="パス_173" data-name="パス 173" d="M106.8,176.744H104.91a1.5,1.5,0,0,1-1.481-1.509v-11.81a1.5,1.5,0,0,1,1.481-1.509H106.8a1.5,1.5,0,0,1,1.481,1.509v11.81a1.5,1.5,0,0,1-1.481,1.509" transform="translate(-72.783 -113.035)" fill="#fef6e4"/>
    <path id="パス_174" data-name="パス 174" d="M118.833,163.97h0a1.224,1.224,0,0,1-1.213,1.236h-9.7a1.236,1.236,0,0,1,0-2.472h9.7a1.224,1.224,0,0,1,1.213,1.236" transform="translate(-75.088 -113.607)" fill="#fef6e4"/>
    <path id="パス_175" data-name="パス 175" d="M232.259,168.064h0a1.224,1.224,0,0,1-1.213,1.236h-7.277a1.236,1.236,0,0,1,0-2.471h7.277a1.224,1.224,0,0,1,1.213,1.236" transform="translate(-156.613 -116.465)" fill="#fef6e4"/>
    <path id="パス_176" data-name="パス 176" d="M260.913,168.064h0A1.224,1.224,0,0,1,259.7,169.3h-7.277a1.236,1.236,0,0,1,0-2.471H259.7a1.224,1.224,0,0,1,1.213,1.236" transform="translate(-176.777 -116.465)" fill="#fef6e4"/>
    <path id="パス_177" data-name="パス 177" d="M221.832,176.744h-1.889a1.5,1.5,0,0,1-1.481-1.509v-11.81a1.5,1.5,0,0,1,1.481-1.509h1.889a1.5,1.5,0,0,1,1.481,1.509v11.81a1.5,1.5,0,0,1-1.481,1.509" transform="translate(-153.733 -113.035)" fill="#fef6e4"/>
    <path id="パス_178" data-name="パス 178" d="M250.486,176.744H248.6a1.5,1.5,0,0,1-1.481-1.509v-11.81a1.5,1.5,0,0,1,1.481-1.509h1.889a1.5,1.5,0,0,1,1.481,1.509v11.81a1.5,1.5,0,0,1-1.481,1.509" transform="translate(-173.896 -113.035)" fill="#fef6e4"/>
    <path id="パス_179" data-name="パス 179" d="M279.139,176.744H277.25a1.5,1.5,0,0,1-1.481-1.509v-11.81a1.5,1.5,0,0,1,1.481-1.509h1.889a1.5,1.5,0,0,1,1.481,1.509v11.81a1.5,1.5,0,0,1-1.481,1.509" transform="translate(-194.06 -113.035)" fill="#fef6e4"/>
    <path id="パス_180" data-name="パス 180" d="M63.666,222.915h0a1.224,1.224,0,0,1-1.213,1.236H50.325a1.236,1.236,0,0,1,0-2.471H62.454a1.224,1.224,0,0,1,1.213,1.236" transform="translate(-34.56 -154.757)" fill="#fef6e4"/>
    <path id="パス_181" data-name="パス 181" d="M85.3,182.429H83.415a1.5,1.5,0,0,1-1.481-1.509V163.425a1.5,1.5,0,0,1,1.481-1.509H85.3a1.5,1.5,0,0,1,1.481,1.509V180.92a1.5,1.5,0,0,1-1.481,1.509" transform="translate(-57.657 -113.036)" fill="#fef6e4"/>
    <path id="パス_182" data-name="パス 182" d="M48.389,218.435H46.5a1.5,1.5,0,0,1-1.481-1.509V215a1.5,1.5,0,0,1,1.481-1.509h1.889A1.5,1.5,0,0,1,49.871,215v1.924a1.5,1.5,0,0,1-1.481,1.509" transform="translate(-31.68 -149.042)" fill="#fef6e4"/>
    <path id="パス_183" data-name="パス 183" d="M195.425,168.99h-1.889a1.5,1.5,0,0,1-1.481-1.509V151.963a1.5,1.5,0,0,1,1.481-1.509h1.889a1.5,1.5,0,0,1,1.481,1.509v15.517a1.5,1.5,0,0,1-1.481,1.509" transform="translate(-135.15 -105.034)" fill="#fef6e4"/>
    <path id="パス_184" data-name="パス 184" d="M172.65,151.69h0a1.224,1.224,0,0,1-1.213,1.236H160.522a1.236,1.236,0,0,1,0-2.471h10.916a1.224,1.224,0,0,1,1.213,1.236" transform="translate(-112.106 -105.034)" fill="#fef6e4"/>
    <path id="パス_185" data-name="パス 185" d="M201,204.9h0a1.224,1.224,0,0,1-1.213,1.235h-2.426a1.236,1.236,0,0,1,0-2.471h2.426A1.224,1.224,0,0,1,201,204.9" transform="translate(-138.03 -142.184)" fill="#fef6e4"/>
    <path id="パス_186" data-name="パス 186" d="M343.9,170.3h-1.889a1.5,1.5,0,0,1-1.481-1.509V153.276a1.5,1.5,0,0,1,1.481-1.509H343.9a1.5,1.5,0,0,1,1.481,1.509v15.517A1.5,1.5,0,0,1,343.9,170.3" transform="translate(-239.634 -105.951)" fill="#fef6e4"/>
    <path id="パス_187" data-name="パス 187" d="M321.128,153h0a1.224,1.224,0,0,1-1.213,1.236H309a1.236,1.236,0,0,1,0-2.471h10.916A1.224,1.224,0,0,1,321.128,153" transform="translate(-216.591 -105.951)" fill="#fef6e4"/>
    <path id="パス_188" data-name="パス 188" d="M349.478,206.218h0a1.224,1.224,0,0,1-1.213,1.236h-2.426a1.236,1.236,0,0,1,0-2.471h2.426a1.224,1.224,0,0,1,1.213,1.236" transform="translate(-242.515 -143.101)" fill="#fef6e4"/>
    <path id="パス_189" data-name="パス 189" d="M49.628,176.745h-2.7A5.982,5.982,0,0,1,41,170.707v-2.753a5.982,5.982,0,0,1,5.926-6.038h2.7a5.983,5.983,0,0,1,5.926,6.038v2.753a5.983,5.983,0,0,1-5.926,6.038m3.5-7.414h0a4.852,4.852,0,1,0-4.852,4.943,4.9,4.9,0,0,0,4.852-4.943" transform="translate(-28.852 -113.036)" fill="#fef6e4"/>
    <path id="パス_190" data-name="パス 190" d="M159.749,176.745h-2.7a5.983,5.983,0,0,1-5.926-6.038v-2.753a5.983,5.983,0,0,1,5.926-6.038h2.7a5.983,5.983,0,0,1,5.926,6.038v2.753a5.983,5.983,0,0,1-5.926,6.038m3.5-7.414h0a4.852,4.852,0,1,0-4.852,4.943,4.9,4.9,0,0,0,4.852-4.943" transform="translate(-106.344 -113.036)" fill="#fef6e4"/>
  </g>
</svg>
