<svg xmlns="http://www.w3.org/2000/svg" xmlns:xlink="http://www.w3.org/1999/xlink" width="100" height="115.3" viewBox="0 0 100 115.3">
  <defs>
    <clipPath id="clip-path">
      <rect id="長方形_22" data-name="長方形 22" width="100" height="115.3" fill="none"/>
    </clipPath>
  </defs>
  <g id="グループ_3" data-name="グループ 3" clip-path="url(#clip-path)">
    <path id="パス_1" data-name="パス 1" d="M76.091,89.258a28.325,28.325,0,0,0,14.378-2.347A28.721,28.721,0,0,0,98.763,79.8a10.252,10.252,0,0,0,2.537-4.468,4.021,4.021,0,0,0-2.115-4.361,4.5,4.5,0,0,0-2.526-.624,7.33,7.33,0,0,0-6.04,2.8c-.609.74-2.69,3.224-3.312,3.957a21.04,21.04,0,0,1-5.732,4.164,20.544,20.544,0,0,1-6.242,2.655c-2.612.593-4.76.69-6.4-.479l2.6-.631a26.828,26.828,0,0,0,11.751-6.281C92.082,68.59,97.618,53.959,95.75,39.749a42.753,42.753,0,0,0-8.19-19.74A39.753,39.753,0,0,0,61.21,2.961a40.984,40.984,0,0,0-12.107,0c-8.671.934-17.954,1.933-26.35,9.421A44.711,44.711,0,0,0,7.8,43.787C7.226,56.174,11.567,68.179,18.481,75.64a28.76,28.76,0,0,0,7.478,5.832l3.186,1.716c-3.007.324-6.184-.4-8.029-2.317A45.482,45.482,0,0,1,15,73.417c-1.846-2.891-2.051-6.733-6.008-7.152a17.659,17.659,0,0,0-3.673.645,6.7,6.7,0,0,0-1.677.916c-1.321,1.707-1.156,1.319-1.132,3.456.022,1.97,1.233,3.789,2.48,5.474C9.78,83.226,16.617,89.515,25.841,90.545c-.4,1.4-1.915,2.323-3.543,2.822a29.651,29.651,0,0,1-4.19.788,37.27,37.27,0,0,0-10.5,3.068,6.56,6.56,0,0,0-2.133,1.439,1.8,1.8,0,0,0-.35,2.107A3.14,3.14,0,0,0,7.1,101.939a13.236,13.236,0,0,0,4.06.155,68.2,68.2,0,0,0,7.658-1.009c3.225-.614,6.732-1.7,7.963-4.154,1.384,2.16-.188,4.727-2.055,6.632-1.848,1.886-4.124,3.749-4.42,6.117a2.653,2.653,0,0,0,1.478,2.836,4.7,4.7,0,0,0,3.3-.053c3.008-1.02,4.766-3.485,5.91-5.894A25.119,25.119,0,0,0,33.279,98.7c5.454,1.753,9.026,6.528,8.364,11.116a15.337,15.337,0,0,0-.53,3.913,2.841,2.841,0,0,0,2.284,2.513,3.388,3.388,0,0,0,2.969-1.088,5.466,5.466,0,0,0,1.116-2.558,33.811,33.811,0,0,0,.391-12.848,1.8,1.8,0,0,1,1.483.088,2.745,2.745,0,0,1,1.088,1.237c1.73,3.29,1.642,6.962,2.011,10.509a6.49,6.49,0,0,0,1.188,3.574,4.206,4.206,0,0,0,4.035,1.423A3.437,3.437,0,0,0,59.9,114.8a7.073,7.073,0,0,0,.6-2.524q.224-2.052.448-4.1c.387-3.55.6-7.544-2.615-10.138,4,1.168,6.715,1.981,8.5,4.99,1.767,2.97,2.759,8.871,6.649,10.066a4.7,4.7,0,0,0,3.041.053,2.53,2.53,0,0,0,1.785-1.816c.432-2.819.264-2.178-.55-5.393-.241-.952-.241-.952-2.49-5.1-1.367-2.52-5.624-6.728-8.031-8.232,2.776-.184,4.759,1.627,6.937,2.858a32.729,32.729,0,0,0,8.968,4.007,22.321,22.321,0,0,0,4.993,1.348,18.58,18.58,0,0,0,3.185-.219,4.132,4.132,0,0,0,2.841-1.342,2.533,2.533,0,0,0,.87-2.577c-.527-1.22-2.456-1.575-4.065-1.834a38.979,38.979,0,0,1-14.879-5.585" transform="translate(-1.93 -1.937)" fill="#dd6696"/>
    <path id="パス_2" data-name="パス 2" d="M54.932,115.3a4.918,4.918,0,0,1-3.659-1.728,7.034,7.034,0,0,1-1.311-3.871c-.075-.722-.132-1.458-.187-2.17-.214-2.758-.435-5.61-1.762-8.135a2.188,2.188,0,0,0-.855-1,1.313,1.313,0,0,0-.577-.142,34.269,34.269,0,0,1-.479,12.529,6.032,6.032,0,0,1-1.244,2.809,3.97,3.97,0,0,1-3.486,1.269,3.389,3.389,0,0,1-2.749-3,8.491,8.491,0,0,1,.294-2.843c.093-.42.18-.817.238-1.217.6-4.141-2.525-8.457-7.336-10.275a25.757,25.757,0,0,1-2.244,7.353c-1.551,3.266-3.591,5.289-6.238,6.186a5.3,5.3,0,0,1-3.715.033,3.2,3.2,0,0,1-1.806-3.421c.275-2.2,2.023-3.919,3.714-5.582.292-.287.583-.573.863-.859,1.124-1.147,2.757-3.19,2.352-5.048-1.752,2.146-5.189,3.031-7.752,3.519a68.966,68.966,0,0,1-7.721,1.018,13.842,13.842,0,0,1-4.234-.169,3.687,3.687,0,0,1-2.322-1.428,2.355,2.355,0,0,1,.406-2.769,7.038,7.038,0,0,1,2.314-1.577,37.761,37.761,0,0,1,10.659-3.117c.256-.039.513-.077.771-.114A22.705,22.705,0,0,0,20.2,90.89a5.241,5.241,0,0,0,2.874-1.821C15.518,87.976,8.635,83.3,2.608,75.155,1.367,73.478.041,71.509.017,69.352c0-.24-.007-.448-.011-.63a3.135,3.135,0,0,1,.989-2.828l.272-.35a4.657,4.657,0,0,1,1.671-.986l.216-.1a16.87,16.87,0,0,1,3.969-.694A4.987,4.987,0,0,1,10,64.971,48.64,48.64,0,0,1,5.3,41.824a45.184,45.184,0,0,1,15.143-31.8C28.979,2.415,38.613,1.378,47.113.463a41.487,41.487,0,0,1,12.262,0A40.213,40.213,0,0,1,86.093,17.751c2.612,3.772,6.984,10.086,8.285,19.988,1.817,13.822-3.264,28.8-12.644,37.28a27.362,27.362,0,0,1-12,6.411l-1.041.252a9.975,9.975,0,0,0,4.58-.24,17.623,17.623,0,0,0,5.377-2.205l.719-.395a19.866,19.866,0,0,0,5.572-4.034c.636-.75,2.72-3.238,3.307-3.951a7.9,7.9,0,0,1,6.5-3.008,5.029,5.029,0,0,1,2.75.683A4.583,4.583,0,0,1,99.924,73.5a10.746,10.746,0,0,1-2.66,4.73,28.98,28.98,0,0,1-8.459,7.243c-2.911,1.566-8.249,2.634-12.3,2.6a39.131,39.131,0,0,0,12.622,4.281c1.522.245,3.823.616,4.493,2.168.285.66.348,1.749-.973,3.182a4.669,4.669,0,0,1-3.179,1.519,17.615,17.615,0,0,1-3.317.221,21.291,21.291,0,0,1-4.868-1.284c-.114-.042-.2-.074-.25-.091l-.391-.132a29.711,29.711,0,0,1-7.76-3.4l-.915-.518c-.491-.278-.975-.585-1.443-.883a13.641,13.641,0,0,0-3.167-1.655,30.668,30.668,0,0,1,6.476,7.152c2.283,4.207,2.283,4.207,2.541,5.228.178.7.324,1.216.441,1.629.441,1.552.466,1.724.12,3.988a3.085,3.085,0,0,1-2.206,2.278,5.252,5.252,0,0,1-3.342-.061c-3.019-.928-4.377-4.291-5.576-7.259a23.69,23.69,0,0,0-1.392-3.058c-1.382-2.323-3.359-3.251-6.17-4.136,1.824,2.58,1.673,5.864,1.325,9.057l-.448,4.1a7.61,7.61,0,0,1-.657,2.719,3.941,3.941,0,0,1-3.542,2.183M46.56,97.122a2.423,2.423,0,0,1,1.131.277,3.287,3.287,0,0,1,1.32,1.472c1.435,2.73,1.666,5.7,1.888,8.573.055.7.111,1.433.185,2.14a5.982,5.982,0,0,0,1.066,3.278,3.657,3.657,0,0,0,3.464,1.23,2.853,2.853,0,0,0,1.856-1.488,6.647,6.647,0,0,0,.54-2.328l.448-4.1c.39-3.579.526-7.272-2.408-9.638a.564.564,0,0,1,.512-.98c4.014,1.173,6.914,2.02,8.831,5.243a24.41,24.41,0,0,1,1.469,3.212c1.1,2.735,2.356,5.834,4.862,6.6a4.163,4.163,0,0,0,2.739.045,1.977,1.977,0,0,0,1.364-1.359c.317-2.07.309-2.1-.091-3.5-.119-.42-.268-.942-.45-1.66-.224-.884-.224-.884-2.439-4.967-1.322-2.437-5.534-6.586-7.834-8.023a.564.564,0,0,1,.261-1.041c2.351-.155,4.135.979,5.86,2.077.455.29.926.59,1.392.853l.916.519A28.962,28.962,0,0,0,81,96.863l.391.132c.057.019.153.055.282.1a20.273,20.273,0,0,0,4.586,1.219,16.181,16.181,0,0,0,3.053-.216,3.6,3.6,0,0,0,2.5-1.166c.5-.546,1.043-1.33.767-1.972-.425-.983-2.435-1.307-3.636-1.5a39.5,39.5,0,0,1-15.1-5.668.564.564,0,0,1,.4-1.03c3.76.628,10.7-.5,14.018-2.287A27.9,27.9,0,0,0,96.4,77.5,9.818,9.818,0,0,0,98.815,73.3,3.462,3.462,0,0,0,97,69.54a3.969,3.969,0,0,0-2.3-.565,6.794,6.794,0,0,0-5.577,2.6c-.6.733-2.663,3.192-3.317,3.964a20.888,20.888,0,0,1-5.893,4.295l-.715.393a18.743,18.743,0,0,1-5.672,2.317c-2.27.515-4.859.85-6.852-.57a.564.564,0,0,1,.194-1.007l2.6-.631a26.247,26.247,0,0,0,11.505-6.151A38.762,38.762,0,0,0,91.054,58.368,44.707,44.707,0,0,0,93.26,37.885c-1.266-9.631-5.54-15.8-8.094-19.492A39.109,39.109,0,0,0,59.185,1.579a40.557,40.557,0,0,0-11.951,0C38.5,2.525,29.459,3.5,21.2,10.866A44.06,44.06,0,0,0,6.431,41.875c-.545,11.8,3.491,23.844,10.533,31.444A28.3,28.3,0,0,0,24.3,79.039l3.186,1.716a.564.564,0,0,1-.207,1.057c-3.415.367-6.671-.586-8.5-2.487A46.215,46.215,0,0,1,12.6,71.783a19.024,19.024,0,0,1-1.33-2.648C10.33,67,9.521,65.154,7,64.888a18.419,18.419,0,0,0-3.377.6l-.231.1a6.862,6.862,0,0,0-1.242.652l-.27.347c-.774.992-.774.992-.75,2.11,0,.186.009.4.011.642.02,1.821,1.182,3.54,2.369,5.145C9.552,82.642,16.436,87.2,23.973,88.047a.564.564,0,0,1,.479.717c-.409,1.417-1.8,2.556-3.919,3.2a23.516,23.516,0,0,1-3.507.693c-.254.037-.509.074-.762.113a36.648,36.648,0,0,0-10.34,3.018,6.089,6.089,0,0,0-1.952,1.3,1.267,1.267,0,0,0-.293,1.445,2.613,2.613,0,0,0,1.623.916,12.877,12.877,0,0,0,3.886.141,67.839,67.839,0,0,0,7.594-1c4.191-.8,6.665-2.058,7.564-3.853a.564.564,0,0,1,.979-.052c1.29,2.012.534,4.616-2.126,7.331-.285.291-.581.582-.878.874-1.553,1.528-3.159,3.108-3.385,4.918a2.113,2.113,0,0,0,1.149,2.252,4.11,4.11,0,0,0,2.891-.073c2.343-.794,4.169-2.627,5.582-5.6a24.525,24.525,0,0,0,2.233-7.7.564.564,0,0,1,.733-.472c5.69,1.829,9.451,6.874,8.749,11.734-.064.441-.16.877-.253,1.3a7.538,7.538,0,0,0-.275,2.468,2.267,2.267,0,0,0,1.819,2.023,2.839,2.839,0,0,0,2.452-.907A4.987,4.987,0,0,0,45,110.532,33.151,33.151,0,0,0,45.385,97.9a.564.564,0,0,1,.323-.6,2.07,2.07,0,0,1,.852-.172M12.887,69.979a11.887,11.887,0,0,0,.659,1.2,45.263,45.263,0,0,0,6.046,7.368,8.318,8.318,0,0,0,5.483,2.2l-1.315-.708a29.425,29.425,0,0,1-7.624-5.945,34.618,34.618,0,0,1-3.249-4.107" transform="translate(0 0.001)" fill="#0e1d3a"/>
    <path id="パス_3" data-name="パス 3" d="M117.991,294.878a6.394,6.394,0,1,1-6.394-6.394,6.394,6.394,0,0,1,6.394,6.394" transform="translate(-81.472 -223.41)" fill="#fdefda"/>
    <path id="パス_4" data-name="パス 4" d="M109.662,299.9a6.958,6.958,0,1,1,6.958-6.958,6.966,6.966,0,0,1-6.958,6.958m0-12.788a5.83,5.83,0,1,0,5.83,5.83,5.837,5.837,0,0,0-5.83-5.83" transform="translate(-79.537 -221.473)" fill="#0e1d3a"/>
    <path id="パス_5" data-name="パス 5" d="M125.771,305.854a3.2,3.2,0,1,1-3.2-3.2,3.2,3.2,0,0,1,3.2,3.2" transform="translate(-92.449 -234.386)" fill="#0c1c39"/>
    <path id="パス_6" data-name="パス 6" d="M120.638,307.678a3.761,3.761,0,1,1,3.761-3.761,3.765,3.765,0,0,1-3.761,3.761m0-6.394a2.633,2.633,0,1,0,2.633,2.633,2.636,2.636,0,0,0-2.633-2.633" transform="translate(-90.513 -232.449)" fill="#0e1d3a"/>
    <path id="パス_7" data-name="パス 7" d="M115.729,290l-9.929,7.578A6.4,6.4,0,0,1,115.73,290" transform="translate(-81.473 -223.409)" fill="#fdefda"/>
    <path id="パス_8" data-name="パス 8" d="M103.864,296.2a.557.557,0,0,1-.137-.017.564.564,0,0,1-.374-.309,6.959,6.959,0,0,1,10.806-8.248.564.564,0,0,1,.066.795.583.583,0,0,1-.089.085l-9.933,7.581a.563.563,0,0,1-.338.113m5.8-9.094a5.837,5.837,0,0,0-5.548,7.63l8.745-6.675a5.838,5.838,0,0,0-3.2-.955" transform="translate(-79.537 -221.473)" fill="#0e1d3a"/>
    <path id="パス_9" data-name="パス 9" d="M282.293,298.78a6.394,6.394,0,1,0,6.394-6.394,6.394,6.394,0,0,0-6.394,6.394" transform="translate(-218.615 -226.432)" fill="#fdefda"/>
    <path id="パス_10" data-name="パス 10" d="M286.751,303.8a6.958,6.958,0,1,1,6.958-6.958,6.966,6.966,0,0,1-6.958,6.958m0-12.788a5.83,5.83,0,1,0,5.83,5.83,5.837,5.837,0,0,0-5.83-5.83" transform="translate(-216.679 -224.495)" fill="#0e1d3a"/>
    <path id="パス_11" data-name="パス 11" d="M296.466,309.756a3.2,3.2,0,1,0,3.2-3.2,3.2,3.2,0,0,0-3.2,3.2" transform="translate(-229.591 -237.408)" fill="#0c1c39"/>
    <path id="パス_12" data-name="パス 12" d="M297.727,311.581a3.761,3.761,0,1,1,3.761-3.761,3.765,3.765,0,0,1-3.761,3.761m0-6.394a2.633,2.633,0,1,0,2.633,2.633,2.636,2.636,0,0,0-2.633-2.633" transform="translate(-227.655 -235.472)" fill="#0e1d3a"/>
    <path id="パス_13" data-name="パス 13" d="M292.322,293.9l9.929,7.578a6.4,6.4,0,0,0-9.93-7.579" transform="translate(-226.381 -226.431)" fill="#fdefda"/>
    <path id="パス_14" data-name="パス 14" d="M300.315,300.108a.563.563,0,0,1-.343-.116l-9.929-7.578h0a.575.575,0,0,1-.089-.084.564.564,0,0,1,.065-.795,6.96,6.96,0,0,1,10.806,8.248.564.564,0,0,1-.511.325m-9-8.139c5.562,4.245,7.821,5.969,8.745,6.676a5.832,5.832,0,0,0-8.745-6.676" transform="translate(-224.445 -224.496)" fill="#0e1d3a"/>
    <path id="パス_15" data-name="パス 15" d="M184.211,367.124c-2.659.858-5.385.194-6.369-1.194a2.639,2.639,0,0,1,.51-3.583,4.049,4.049,0,0,1,1.182-.514,8.371,8.371,0,0,1,1.875-.083,7.68,7.68,0,0,1-3.248-1.484,3.589,3.589,0,0,1-.939-3.28,2.483,2.483,0,0,1,1.648-1.656,2.8,2.8,0,0,1,2.858.605" transform="translate(-137.147 -275.045)" fill="#dd6696"/>
    <path id="パス_16" data-name="パス 16" d="M179.881,366.133a5.423,5.423,0,0,1-4.434-1.808,3.294,3.294,0,0,1-.529-2.464,2.894,2.894,0,0,1,1.178-1.908,4.019,4.019,0,0,1,.849-.432,6.749,6.749,0,0,1-1.085-.756,4.151,4.151,0,0,1-1.109-3.888,3.028,3.028,0,0,1,2-2.01,3.336,3.336,0,0,1,3.321.64l.064.049a.564.564,0,0,1-.682.9l-.071-.055a2.186,2.186,0,0,0-2.261-.466,1.917,1.917,0,0,0-1.3,1.3,3.027,3.027,0,0,0,.776,2.677,5.592,5.592,0,0,0,2.693,1.256c.3.059.531.105.674.361a.6.6,0,0,1,.04.484c-.158.433-.593.4-.854.372a4.284,4.284,0,0,0-1.42.066,3.494,3.494,0,0,0-.992.429,1.778,1.778,0,0,0-.71,1.177,2.191,2.191,0,0,0,.339,1.617c.786,1.109,3.2,1.8,5.736.984a.564.564,0,0,1,.346,1.073,8.416,8.416,0,0,1-2.568.4" transform="translate(-135.212 -273.114)" fill="#0e1d3a"/>
    <path id="パス_17" data-name="パス 17" d="M171.111,70.807H132.746a1.128,1.128,0,0,1,0-2.256h38.365a1.128,1.128,0,1,1,0,2.256" transform="translate(-101.929 -53.088)" fill="#0e1d3a"/>
    <path id="パス_18" data-name="パス 18" d="M158.323,155.846H132.746a1.128,1.128,0,0,1,0-2.256h25.577a1.128,1.128,0,0,1,0,2.256" transform="translate(-101.929 -118.944)" fill="#0e1d3a"/>
    <path id="パス_19" data-name="パス 19" d="M145.535,240.885H132.747a1.128,1.128,0,1,1,0-2.256h12.788a1.128,1.128,0,1,1,0,2.256" transform="translate(-101.929 -184.801)" fill="#0e1d3a"/>
  </g>
</svg>
