<svg xmlns="http://www.w3.org/2000/svg" xmlns:xlink="http://www.w3.org/1999/xlink" width="90" height="102.422" viewBox="0 0 90 102.422">
  <defs>
    <clipPath id="clip-path">
      <rect id="長方形_24" data-name="長方形 24" width="90" height="102.422" fill="none"/>
    </clipPath>
  </defs>
  <g id="グループ_7" data-name="グループ 7" clip-path="url(#clip-path)">
    <path id="パス_30" data-name="パス 30" d="M25.531,87.66a.669.669,0,0,1-.277.785c-5.43,3.546-7.587,8.019-5.752,12.2a1.841,1.841,0,0,0,.879,1,3.657,3.657,0,0,0,2.219.278c.891-.2,1.033-.712,1.034-1.144,0-2.175-.65-4.358-.071-6.519.544-2.03,2.393-4.114,6.086-5.36a.684.684,0,0,1,.88.808A42.339,42.339,0,0,1,28.192,95.5c-.917,2.28-1.358,4.668.263,6.873a1.231,1.231,0,0,0,1,.508,2.523,2.523,0,0,0,.771-.107c2.293-.63,1.273-2.329,1.359-3.5.191-2.592.487-2.451,1.343-4.235a.56.56,0,0,1,.578-.358s.525.055.921.095a3.245,3.245,0,0,1,1.447,3.045c-.176,1.351-1.184,2.841-.351,3.92a2.038,2.038,0,0,0,2.712.127A8.4,8.4,0,0,0,40.1,99.54a3.756,3.756,0,0,1,2.288-1.81,3.882,3.882,0,0,1,3.032,1.277,16.824,16.824,0,0,1,1.793,1.868,8.572,8.572,0,0,0,1.556,1.656,2.174,2.174,0,0,0,2.148.32,2.11,2.11,0,0,0,1.035-1.907,6.212,6.212,0,0,0-.541-2.207,15.2,15.2,0,0,1-.939-2.467,7.175,7.175,0,0,1-.187-1.544,7.946,7.946,0,0,1,2.265.688c.978.548,1.706,2.29,2.047,3.318.542,1.63.243,1.889.566,3.578a1.289,1.289,0,0,0,1.094,1.082,4.242,4.242,0,0,0,2.583-.264,2.239,2.239,0,0,0,1.088-1.137,9.105,9.105,0,0,0,.828-2.469,4.891,4.891,0,0,0-.07-2.3,9.226,9.226,0,0,0-1.11-2.136L56.809,90.7l-.076-.119a.682.682,0,0,1,.923-.953c.2.116.38.236.551.353,5.4,3.732,8,8.2,7.339,12.6a.835.835,0,0,0,.675,1.078,3.585,3.585,0,0,0,2.15-.154,2.208,2.208,0,0,0,1.035-.907c3.215-4.845.818-10.3-6.05-14.358a.683.683,0,0,1,.324-1.271,15.706,15.706,0,0,1,6.772,6.111,41.963,41.963,0,0,1,3.826,8.318c.258.7.741,1.548,1.479,1.431a1.349,1.349,0,0,0,.671-.379A5.177,5.177,0,0,0,77.6,97.373a15.247,15.247,0,0,0-2.578-4.792c-1.38-1.96-2.824-3.979-4.892-5.19C67.863,86.066,64.995,85.8,63,84.145l3.668-.889a26.979,26.979,0,0,0,11.817-6.316c8.844-7.992,14.411-22.706,12.533-37-1.291-9.821-5.665-16.137-8.236-19.851A39.978,39.978,0,0,0,56.28,2.948a41.223,41.223,0,0,0-12.175,0c-8.72.939-18.055,1.944-26.5,9.475A44.964,44.964,0,0,0,2.567,44C1.992,56.461,6.357,68.533,13.31,76.037a28.915,28.915,0,0,0,7.52,5.865l3.2,1.722c-1.21.537-2.449,1.015-3.639,1.595a10.7,10.7,0,0,0-4.563,3.711c-1.258,2.022-1.384,4.533-1.337,6.914.039,1.966.374,4.268,2.1,5.209a.952.952,0,0,0,.46.142c.672-.01.746-.979.639-1.642a11.5,11.5,0,0,1,1.263-7.614,8.5,8.5,0,0,1,6.3-4.219" transform="translate(-1.946 -1.922)" fill="#dd6696"/>
    <path id="パス_31" data-name="パス 31" d="M23.039,85.89c.057.244-.8.679-.987.813-.389.283-.77.577-1.14.885a16.229,16.229,0,0,0-1.939,1.887,10.952,10.952,0,0,0-2.312,4.08,7.9,7.9,0,0,0-.051,4.18A4.888,4.888,0,0,0,17.5,99.7a3.246,3.246,0,0,0,2.286.923,2.471,2.471,0,0,0,2.165-.765,3.5,3.5,0,0,0,.24-2.348c-.16-1.889-.578-3.941.225-5.745a7.044,7.044,0,0,1,2.758-2.992,10.841,10.841,0,0,1,2.509-1.192c.165-.051.293-.139.352.062.043.148-.139.531-.183.675a16.009,16.009,0,0,1-.581,1.57c-1.409,3.318-3.972,7.6-1.163,10.961.977,1.169,3.2.7,3.955-.534.617-1.01.079-2.307.18-3.412a6.279,6.279,0,0,1,.353-1.8c.2-.486.49-.937.726-1.4.045-.089.133-.354.22-.388a.883.883,0,0,1,.269.032,2.071,2.071,0,0,1,.507.075,1.83,1.83,0,0,1,.475.468,2.68,2.68,0,0,1,.484,2.384c-.364,1.46-1.286,3.555.553,4.451,1.658.808,3.218-.467,4.117-1.762a10.144,10.144,0,0,1,1.6-2.1A2.043,2.043,0,0,1,42,96.7a9.492,9.492,0,0,1,2.267,1.959,23.776,23.776,0,0,0,1.907,2.155c1.346,1.147,3.446,1.185,4.185-.654.763-1.9-.6-3.707-1.148-5.449a5.841,5.841,0,0,1-.3-1.9l-.567.567a4.219,4.219,0,0,1,2.332.887,6.573,6.573,0,0,1,1.361,2.489,10.022,10.022,0,0,1,.468,2.568,2.994,2.994,0,0,0,.867,2.338,3.8,3.8,0,0,0,3.055.323,3.112,3.112,0,0,0,2.136-1.793,8.573,8.573,0,0,0,.923-3.731,6.6,6.6,0,0,0-1.256-3.407q-.415-.66-.833-1.318c-.318-.5-2.285-3.385-2.1-3.522s1.133.666,1.287.779q.8.586,1.552,1.236A19.518,19.518,0,0,1,60.5,92.65a11.642,11.642,0,0,1,2.485,5.084,8.587,8.587,0,0,1,.093,2.549c-.1.862-.04,1.6.895,1.949a3.733,3.733,0,0,0,3.035-.315,4.814,4.814,0,0,0,1.6-2.131,8.175,8.175,0,0,0,.7-4.849,10.238,10.238,0,0,0-2.274-4.7,19.365,19.365,0,0,0-5.037-4.225,1.436,1.436,0,0,1-.375-.267c-.031-.039.055-.094.057-.115,0,.026-.257-.161.048.034.487.311,1.04.528,1.53.844A14.221,14.221,0,0,1,65.784,88.6,21.979,21.979,0,0,1,69.7,94.492c.559,1.172,1.048,2.374,1.511,3.587a7.942,7.942,0,0,0,1.374,2.916,1.662,1.662,0,0,0,2.512-.273,5.063,5.063,0,0,0,1.257-2.748c.334-2.321-.681-4.472-1.933-6.361a27.442,27.442,0,0,0-4.272-5.392c-1.7-1.525-3.748-2.168-5.851-2.932a9.732,9.732,0,0,1-2.841-1.467l-.25.948c1.633-.4,3.288-.745,4.9-1.22a27.288,27.288,0,0,0,5.323-2.2,31.12,31.12,0,0,0,10.025-8.96,45.4,45.4,0,0,0,8.526-25.328,42.377,42.377,0,0,0-1.891-14.1,43.423,43.423,0,0,0-4.823-10.184,52.261,52.261,0,0,0-7.128-9.116,40.686,40.686,0,0,0-9.343-6.95A39.323,39.323,0,0,0,51.962.144c-4.494-.428-9.03.185-13.488.73A53.587,53.587,0,0,0,25.734,3.727,36.728,36.728,0,0,0,11.291,14.1,45.837,45.837,0,0,0,1.824,31.33a48.085,48.085,0,0,0,.414,27.6c2.65,8.461,7.741,16.53,15.542,21.078,1.314.766,2.675,1.459,4.014,2.18v-.979c-2.738,1.208-5.786,2.224-7.755,4.615-1.928,2.341-2.159,5.456-2.057,8.371a9.17,9.17,0,0,0,.736,3.63c.429.9,1.578,2.322,2.736,1.955,1.265-.4.819-2.151.736-3.087a11.494,11.494,0,0,1,.462-4.5,8.227,8.227,0,0,1,6.655-5.825c.718-.078.726-1.213,0-1.134a9.047,9.047,0,0,0-6.248,3.679,11.449,11.449,0,0,0-1.995,7.871,7.374,7.374,0,0,1,.14,1.568c-.009.076-.032.323-.1.357-.176.083-.686-.424-.8-.537a5.12,5.12,0,0,1-1.137-3.126c-.239-2.587-.18-5.642,1.287-7.884,1.762-2.692,5.12-3.735,7.912-4.967a.571.571,0,0,0,0-.979c-1.375-.741-2.775-1.45-4.122-2.243A28.223,28.223,0,0,1,13.128,75.1,35.834,35.834,0,0,1,5.643,64.53a47.137,47.137,0,0,1-4-27.121A44.575,44.575,0,0,1,9.857,17.682,39.692,39.692,0,0,1,20.187,7.77c7.372-4.71,16.238-5.724,24.767-6.457a37.046,37.046,0,0,1,10.659.527A38.977,38.977,0,0,1,62.1,3.772,40.246,40.246,0,0,1,79.73,17.594a56.517,56.517,0,0,1,5,8.077,39.56,39.56,0,0,1,3.789,12.52A45.111,45.111,0,0,1,83.835,64.4c-3.868,7.468-10.087,13.835-18.357,16.152-1.512.424-3.052.757-4.578,1.127a.571.571,0,0,0-.25.948c1.7,1.375,3.821,1.849,5.813,2.645a11.813,11.813,0,0,1,5.013,4.143c1.37,1.822,2.949,3.8,3.58,6.02a5.508,5.508,0,0,1,.052,2.965c-.148.531-1.038,2.531-1.772,1.75a3.335,3.335,0,0,1-.584-1.166c-.234-.632-.471-1.263-.717-1.89-.443-1.128-.913-2.246-1.44-3.337a22.937,22.937,0,0,0-3.843-5.778,16.16,16.16,0,0,0-2.385-2.088,12.927,12.927,0,0,0-1.345-.843,2.734,2.734,0,0,0-1.475-.544,1.265,1.265,0,0,0-.87,1.87,3.158,3.158,0,0,0,1.139.861c.509.322,1.007.662,1.49,1.023,2.755,2.06,5.435,5.226,4.942,8.907a7.2,7.2,0,0,1-.722,2.279c-.437.863-.89,1.614-1.913,1.787-.326.055-1.087.154-1.364-.112-.21-.2-.061-.562-.032-.832a9.653,9.653,0,0,0-.079-2.537c-.637-4.076-3.716-7.335-6.912-9.688-.742-.546-1.821-1.517-2.714-.675s-.054,1.821.437,2.6l1.62,2.565a21.831,21.831,0,0,1,1.424,2.38,5.112,5.112,0,0,1-.076,3.852c-.366,1.057-.776,1.887-1.94,2.136-.737.158-2,.247-2.211-.676-.2-.854-.134-1.742-.3-2.6a10.584,10.584,0,0,0-.973-2.7,4.339,4.339,0,0,0-1.7-1.991,7.348,7.348,0,0,0-2.452-.713c-.313-.037-.556.29-.567.567-.064,1.623.731,3.022,1.27,4.492a3.207,3.207,0,0,1,.177,2.615c-.453.835-1.438.693-2.11.207a12.9,12.9,0,0,1-1.862-2.059,13.417,13.417,0,0,0-2.126-1.984,3.917,3.917,0,0,0-2.439-.86,3.351,3.351,0,0,0-2.165,1.053,13.74,13.74,0,0,0-1.508,2.06,3,3,0,0,1-1.847,1.478,1.052,1.052,0,0,1-1.342-1.114,21.463,21.463,0,0,1,.63-2.494,3.758,3.758,0,0,0-.364-2.376,2.641,2.641,0,0,0-1.761-1.553c-.691-.075-1.376-.2-1.8.5-.3.488-.558,1.033-.81,1.548a6.96,6.96,0,0,0-.631,3.553,6.3,6.3,0,0,1,.127,1.5c-.09.615-.682.855-1.229.978a.983.983,0,0,1-1.016-.216,3.917,3.917,0,0,1-.7-1.311,5.444,5.444,0,0,1-.193-2.673,23.9,23.9,0,0,1,2.1-5.508,12.214,12.214,0,0,0,.963-2.772,1.261,1.261,0,0,0-1.3-1.482,4.244,4.244,0,0,0-1.279.424c-.422.174-.837.364-1.241.578A10.8,10.8,0,0,0,23.368,88.7a7.285,7.285,0,0,0-2.18,3.1c-.666,1.911-.267,3.941-.116,5.9.046.6.313,1.478-.41,1.709a2.388,2.388,0,0,1-2.391-.551A4.859,4.859,0,0,1,17.6,97.01a6.565,6.565,0,0,1-.08-2.034c.365-3.218,2.94-5.791,5.465-7.554.688-.48,1.369-.879,1.144-1.834-.167-.71-1.261-.41-1.094.3" transform="translate(0 0)" fill="#0e1d3a"/>
    <path id="パス_32" data-name="パス 32" d="M89.118,295.072a6.43,6.43,0,1,1-6.43-6.43,6.43,6.43,0,0,1,6.43,6.43" transform="translate(-58.959 -223.165)" fill="#fef2dc"/>
    <path id="パス_33" data-name="パス 33" d="M80.755,300.136a7,7,0,1,1,7-7,7.005,7.005,0,0,1-7,7m0-12.86a5.863,5.863,0,1,0,5.863,5.863,5.87,5.87,0,0,0-5.863-5.863" transform="translate(-57.026 -221.232)" fill="#0e1d3a"/>
    <path id="パス_34" data-name="パス 34" d="M86.844,290.166l-9.985,7.621a6.431,6.431,0,0,1,9.986-7.622" transform="translate(-58.96 -223.165)" fill="#fef2dc"/>
    <path id="パス_35" data-name="パス 35" d="M74.925,296.421a.56.56,0,0,1-.186-.032.567.567,0,0,1-.328-.3A7,7,0,0,1,85.277,287.8a.567.567,0,0,1,.066.8.574.574,0,0,1-.09.085h0c-10.027,7.653-10.027,7.653-10.075,7.678a.567.567,0,0,1-.254.06m5.831-9.145a5.869,5.869,0,0,0-5.579,7.672l8.795-6.712a5.868,5.868,0,0,0-3.215-.96" transform="translate(-57.026 -221.232)" fill="#0e1d3a"/>
    <path id="パス_36" data-name="パス 36" d="M253.348,298.975a6.43,6.43,0,1,0,6.43-6.43,6.43,6.43,0,0,0-6.43,6.43" transform="translate(-195.878 -226.183)" fill="#fef2dc"/>
    <path id="パス_37" data-name="パス 37" d="M257.844,304.039a7,7,0,1,1,7-7,7.005,7.005,0,0,1-7,7m0-12.86a5.863,5.863,0,1,0,5.863,5.863,5.87,5.87,0,0,0-5.863-5.863" transform="translate(-193.944 -224.249)" fill="#0e1d3a"/>
    <path id="パス_38" data-name="パス 38" d="M263.377,294.068l9.985,7.621a6.431,6.431,0,0,0-9.986-7.622" transform="translate(-203.631 -226.182)" fill="#fef2dc"/>
    <path id="パス_39" data-name="パス 39" d="M271.43,300.323a.565.565,0,0,1-.253-.06c-.048-.024-.048-.024-10.075-7.677a.56.56,0,0,1-.09-.085.568.568,0,0,1,.066-.8A7,7,0,0,1,271.944,300a.568.568,0,0,1-.514.327m-9.046-8.185,8.794,6.713a5.865,5.865,0,0,0-8.794-6.713" transform="translate(-201.698 -224.249)" fill="#0e1d3a"/>
    <path id="パス_40" data-name="パス 40" d="M150.965,366.366a5.454,5.454,0,0,1-4.459-1.818,3.312,3.312,0,0,1-.532-2.478,2.911,2.911,0,0,1,1.184-1.919,4.038,4.038,0,0,1,.854-.435,6.811,6.811,0,0,1-1.09-.76,4.173,4.173,0,0,1-1.115-3.91,3.046,3.046,0,0,1,2.01-2.022,3.354,3.354,0,0,1,3.339.644l.064.049a.567.567,0,1,1-.686.9l-.071-.055a2.2,2.2,0,0,0-2.273-.469,1.927,1.927,0,0,0-1.305,1.309,3.043,3.043,0,0,0,.78,2.692,5.618,5.618,0,0,0,2.709,1.264c.3.059.533.106.678.363a.6.6,0,0,1,.04.487c-.159.437-.6.4-.859.375a4.3,4.3,0,0,0-1.427.067,3.52,3.52,0,0,0-1,.432,1.787,1.787,0,0,0-.713,1.183,2.2,2.2,0,0,0,.34,1.626c.791,1.116,3.222,1.811,5.768.989a.567.567,0,0,1,.348,1.079,8.457,8.457,0,0,1-2.582.4" transform="translate(-112.61 -272.788)" fill="#0e1d3a"/>
    <path id="パス_41" data-name="パス 41" d="M96.111,319.67a22.55,22.55,0,0,0,2.257-1.3,3.592,3.592,0,0,0,1.514-2.021.567.567,0,0,0-1.094-.3,2.279,2.279,0,0,1-.071.245c-.01.028-.05.118-.017.047q-.024.051-.05.1a2.558,2.558,0,0,1-.145.244c-.021.032-.043.062-.065.093.044-.061-.017.022-.034.042a3.461,3.461,0,0,1-.767.678c-.668.447-1.4.808-2.1,1.2a.573.573,0,0,0-.2.776.579.579,0,0,0,.776.2" transform="translate(-73.649 -244.034)" fill="#0e1d3a"/>
    <path id="パス_42" data-name="パス 42" d="M274.439,319.239a5.867,5.867,0,0,1-2.556-3.482.567.567,0,0,0-1.094.3,7.035,7.035,0,0,0,3.077,4.16.567.567,0,1,0,.573-.979" transform="translate(-209.348 -243.808)" fill="#0e1d3a"/>
    <path id="パス_43" data-name="パス 43" d="M134.385,121.7a1.134,1.134,0,0,1-.8-1.936l27.281-27.281a1.134,1.134,0,1,1,1.6,1.6l-27.281,27.281a1.13,1.13,0,0,1-.8.332" transform="translate(-103.024 -71.247)" fill="#0e1d3a"/>
    <path id="パス_44" data-name="パス 44" d="M161.667,121.7a1.13,1.13,0,0,1-.8-.332L133.584,94.086a1.134,1.134,0,0,1,1.6-1.6l27.281,27.281a1.134,1.134,0,0,1-.8,1.936" transform="translate(-103.024 -71.247)" fill="#0e1d3a"/>
  </g>
</svg>
